<svg xmlns="http://www.w3.org/2000/svg" width="640" height="380" viewBox="0 0 640 380">
<rect width="640" height="380" fill="#ffffff"/>
<text x="20" y="28" font-family="Arial, sans-serif" font-size="16" font-weight="700" fill="#1e293b">Beacon: Automation Coverage by Week (%)</text>
<line x1="55" y1="325" x2="616" y2="325" stroke="#e2e8f0" stroke-width="1"/><text x="47" y="329" font-family="Arial, sans-serif" font-size="11" fill="#64748b" text-anchor="end">0</text><line x1="55" y1="257.5" x2="616" y2="257.5" stroke="#e2e8f0" stroke-width="1"/><text x="47" y="261.5" font-family="Arial, sans-serif" font-size="11" fill="#64748b" text-anchor="end">21.3</text><line x1="55" y1="190" x2="616" y2="190" stroke="#e2e8f0" stroke-width="1"/><text x="47" y="194" font-family="Arial, sans-serif" font-size="11" fill="#64748b" text-anchor="end">42.6</text><line x1="55" y1="122.5" x2="616" y2="122.5" stroke="#e2e8f0" stroke-width="1"/><text x="47" y="126.5" font-family="Arial, sans-serif" font-size="11" fill="#64748b" text-anchor="end">63.8</text><line x1="55" y1="55" x2="616" y2="55" stroke="#e2e8f0" stroke-width="1"/><text x="47" y="59" font-family="Arial, sans-serif" font-size="11" fill="#64748b" text-anchor="end">85.1</text><polyline points="55,217.12690951821386 117.33333333333334,204.43595769682724 179.66666666666669,194.9177438307873 242,175.8813160987074 304.33333333333337,160.01762632197412 366.6666666666667,140.9811985898942 429,125.11750881316098 491.33333333333337,109.25381903642773 553.6666666666667,99.73560517038777 616,90.21739130434781" fill="none" stroke="#10b981" stroke-width="2.5"/><circle cx="55" cy="217.12690951821386" r="3.5" fill="#10b981"/><circle cx="117.33333333333334" cy="204.43595769682724" r="3.5" fill="#10b981"/><circle cx="179.66666666666669" cy="194.9177438307873" r="3.5" fill="#10b981"/><circle cx="242" cy="175.8813160987074" r="3.5" fill="#10b981"/><circle cx="304.33333333333337" cy="160.01762632197412" r="3.5" fill="#10b981"/><circle cx="366.6666666666667" cy="140.9811985898942" r="3.5" fill="#10b981"/><circle cx="429" cy="125.11750881316098" r="3.5" fill="#10b981"/><circle cx="491.33333333333337" cy="109.25381903642773" r="3.5" fill="#10b981"/><circle cx="553.6666666666667" cy="99.73560517038777" r="3.5" fill="#10b981"/><circle cx="616" cy="90.21739130434781" r="3.5" fill="#10b981"/><text x="55" y="345" font-family="Arial, sans-serif" font-size="10" fill="#64748b" text-anchor="middle">W1</text><text x="117.33333333333334" y="345" font-family="Arial, sans-serif" font-size="10" fill="#64748b" text-anchor="middle">W2</text><text x="179.66666666666669" y="345" font-family="Arial, sans-serif" font-size="10" fill="#64748b" text-anchor="middle">W3</text><text x="242" y="345" font-family="Arial, sans-serif" font-size="10" fill="#64748b" text-anchor="middle">W4</text><text x="304.33333333333337" y="345" font-family="Arial, sans-serif" font-size="10" fill="#64748b" text-anchor="middle">W5</text><text x="366.6666666666667" y="345" font-family="Arial, sans-serif" font-size="10" fill="#64748b" text-anchor="middle">W6</text><text x="429" y="345" font-family="Arial, sans-serif" font-size="10" fill="#64748b" text-anchor="middle">W7</text><text x="491.33333333333337" y="345" font-family="Arial, sans-serif" font-size="10" fill="#64748b" text-anchor="middle">W8</text><text x="553.6666666666667" y="345" font-family="Arial, sans-serif" font-size="10" fill="#64748b" text-anchor="middle">W9</text><text x="616" y="345" font-family="Arial, sans-serif" font-size="10" fill="#64748b" text-anchor="middle">W10</text><text x="16" y="190" font-family="Arial, sans-serif" font-size="11" fill="#64748b" text-anchor="middle" transform="rotate(-90 16 190)">%</text><line x1="55" y1="325" x2="616" y2="325" stroke="#1e293b" stroke-width="1.5"/>
</svg>